#!OML:ASF H:\Dans Jumps\Project 1\Capture day 1\Session 1\subject.ASF
:FULLY-SPECIFIED
:DEGREES
164
root 0.643796 16.5578 -15.7159 16.0681 0.496663 -2.20216
lowerback 14.0718 -0.222759 0.68345
upperback 4.23828 -0.0948421 2.38539
thorax -3.41427 -0.0542161 2.12725
lowerneck -17.0058 -0.473352 -2.52571
upperneck -0.44333 -0.128083 -0.116531
head 2.83321 -0.0777883 0.400204
rclavicle -5.96354e-015 -7.95139e-016
rhumerus -26.2305 -14.9993 -75.2037
rradius 29.0625
rwrist 27.4095
rhand -18.8811 -24.0603
rfingers 7.12502
rthumb 7.41992 -53.9102
lclavicle -5.96354e-015 -7.95139e-016
lhumerus -26.6365 -4.41793 83.6329
lradius 26.7391
lwrist 14.7287
lhand -28.0173 -6.82676
lfingers 7.12502
lthumb -1.40266 23.1484
rfemur -44.8061 -1.52212 20.4769
rtibia 47.4935
rfoot -19.7504 -5.61727
rtoes -3.18513
lfemur -44.9526 7.64391 -20.1207
ltibia 47.0179
lfoot -17.6094 8.56936
ltoes -13.7985
165
root 0.644346 16.4981 -15.7744 16.7164 0.550577 -2.16183
lowerback 14.6911 -0.206298 0.618554
upperback 4.2434 -0.0681202 2.40739
thorax -3.74393 -0.0399625 2.18895
lowerneck -17.1223 -0.467729 -2.50522
upperneck -0.862997 -0.121369 -0.198915
head 2.70745 -0.0740151 0.36912
rclavicle 5.1684e-015 -2.98177e-014
rhumerus -26.6636 -15.0528 -74.7921
rradius 29.0288
rwrist 27.4424
rhand -18.8392 -24.0267
rfingers 7.12502
rthumb 7.46038 -53.8752
lclavicle 5.1684e-015 -2.98177e-014
lhumerus -27.1265 -4.48362 83.4201
lradius 26.7373
lwrist 15.0039
lhand -28.1181 -6.99011
lfingers 7.12502
lthumb -1.49995 22.9844
rfemur -46.3672 -1.48146 20.4377
rtibia 48.6203
rfoot -20.1312 -5.83447
rtoes -3.34728
lfemur -46.5092 7.4563 -20.25
ltibia 48.1091
lfoot -17.9887 8.9442
ltoes -14.109
166
root 0.644677 16.4357 -15.8328 17.3938 0.613714 -2.12299
lowerback 15.3091 -0.187926 0.559081
upperback 4.23914 -0.038436 2.43347
thorax -4.08237 -0.0239572 2.25142
lowerneck -17.2378 -0.465093 -2.48461
upperneck -1.30029 -0.119343 -0.283045
head 2.5757 -0.0723506 0.337184
rclavicle -2.38542e-015 -1.66979e-014
rhumerus -27.1246 -15.1344 -74.3534
rradius 28.9783
rwrist 27.5062
rhand -18.7776 -24.0021
rfingers 7.12502
rthumb 7.51986 -53.8484
lclavicle -2.38542e-015 -1.66979e-014
lhumerus -27.6369 -4.54805 83.2168
lradius 26.7069
lwrist 15.1364
lhand -28.1792 -7.11503
lfingers 7.12502
lthumb -1.55896 22.859
rfemur -47.9714 -1.45141 20.4049
rtibia 49.7652
rfoot -20.5219 -6.06942
rtoes -3.49447
lfemur -48.1134 7.26399 -20.3763
ltibia 49.2147
lfoot -18.3585 9.32366
ltoes -14.4138
167
root 0.644818 16.3707 -15.8911 18.0905 0.682742 -2.08598
lowerback 15.9359 -0.167962 0.504664
upperback 4.22955 -0.00615813 2.46113
thorax -4.43073 -0.00640317 2.31233
lowerneck -17.3498 -0.469605 -2.48436
upperneck -1.7592 -0.124849 -0.338182
head 2.43639 -0.0728782 0.317872
rclavicle -5.1684e-015 2.54444e-014
rhumerus -27.6142 -15.2375 -73.8984
rradius 28.9212
rwrist 27.5884
rhand -18.7003 -24.0029
rfingers 7.12502
rthumb 7.59439 -53.8465
lclavicle -5.1684e-015 2.54444e-014
lhumerus -28.1692 -4.61454 83.0196
lradius 26.6516
lwrist 15.1309
lhand -28.1643 -7.07106
lfingers 7.12502
lthumb -1.54455 22.9031
rfemur -49.6074 -1.4312 20.3788
rtibia 50.9233
rfoot -20.9097 -6.32903
rtoes -3.62689
lfemur -49.7518 7.06286 -20.4943
ltibia 50.3321
lfoot -18.7098 9.72238
ltoes -14.6761
168
root 0.644804 16.3032 -15.9493 18.7953 0.760998 -2.04853
lowerback 16.5831 -0.149413 0.456946
upperback 4.21641 0.025259 2.48867
thorax -4.7933 0.0109945 2.36973
lowerneck -17.452 -0.477237 -2.50136
upperneck -2.2402 -0.133007 -0.365748
head 2.28817 -0.0732022 0.310432
rclavicle -5.1684e-015 1.82882e-014
rhumerus -28.13 -15.3584 -73.431
rradius 28.8528
rwrist 27.6802
rhand -18.6197 -24.024
rfingers 7.12502
rthumb 7.6722 -53.8649
lclavicle -5.1684e-015 1.82882e-014
lhumerus -28.7269 -4.68014 82.8287
lradius 26.5701
lwrist 15.0168
lhand -28.124 -6.97365
lfingers 7.12502
lthumb -1.50567 23.0008
rfemur -51.2623 -1.42338 20.3566
rtibia 52.0918
rfoot -21.2883 -6.61885
rtoes -3.66731
lfemur -51.4097 6.84608 -20.6009
ltibia 51.4608
lfoot -19.0515 10.1494
ltoes -14.9052
169
root 0.644618 16.2332 -16.0074 19.5054 0.847647 -2.01436
lowerback 17.2523 -0.132656 0.420377
upperback 4.19765 0.0562424 2.51522
thorax -5.1731 0.0284046 2.42013
lowerneck -17.5393 -0.488548 -2.53009
upperneck -2.73814 -0.145283 -0.37126
head 2.13201 -0.0743524 0.311906
rclavicle -1.98785e-016 4.77083e-015
rhumerus -28.6921 -15.4667 -72.9593
rradius 28.7944
rwrist 27.7498
rhand -18.5432 -24.0691
rfingers 7.12502
rthumb 7.74605 -53.9072
lclavicle -1.98785e-016 4.77083e-015
lhumerus -29.3209 -4.74794 82.6436
lradius 26.4685
lwrist 14.8336
lhand -28.0625 -6.84147
lfingers 7.12502
lthumb -1.44626 23.1334
rfemur -52.9312 -1.4212 20.3393
rtibia 53.2679
rfoot -21.6607 -6.94574
rtoes -3.59595
lfemur -53.081 6.61178 -20.6875
ltibia 52.6016
lfoot -19.3902 10.6223
ltoes -15.091
170
root 0.64412 16.1608 -16.065 20.2234 0.942274 -1.98617
lowerback 17.9379 -0.118537 0.394371
upperback 4.1707 0.0858782 2.54237
thorax -5.56986 0.0453602 2.46577
lowerneck -17.6099 -0.49718 -2.554
upperneck -3.2488 -0.155769 -0.373233
head 1.96898 -0.0742306 0.313741
rclavicle -6.16232e-015 -1.07344e-014
rhumerus -29.2996 -15.5539 -72.4829
rradius 28.7352
rwrist 27.7918
rhand -18.4775 -24.1246
rfingers 7.12502
rthumb 7.80946 -53.9604
lclavicle -6.16232e-015 -1.07344e-014
lhumerus -29.96 -4.81844 82.4672
lradius 26.3549
lwrist 14.6398
lhand -27.9867 -6.68245
lfingers 7.12502
lthumb -1.37308 23.2929
rfemur -54.6146 -1.41805 20.3266
rtibia 54.4505
rfoot -22.0363 -7.32623
rtoes -3.46432
lfemur -54.7663 6.35853 -20.7482
ltibia 53.7559
lfoot -19.7272 11.1571
ltoes -15.2559
171
root 0.643306 16.0861 -16.1221 20.9564 1.04385 -1.9663
lowerback 18.624 -0.105805 0.38241
upperback 4.13655 0.116391 2.57024
thorax -5.97412 0.0627931 2.50411
lowerneck -17.6821 -0.503433 -2.56245
upperneck -3.75349 -0.165715 -0.389572
head 1.80873 -0.0744493 0.308259
rclavicle -7.95139e-016 -1.78906e-015
rhumerus -29.9529 -15.6193 -72.0012
rradius 28.6776
rwrist 27.8084
rhand -18.4075 -24.1795
rfingers 7.12502
rthumb 7.87709 -54.0127
lclavicle -7.95139e-016 -1.78906e-015
lhumerus -30.6443 -4.90264 82.3056
lradius 26.2335
lwrist 14.5057
lhand -27.9361 -6.58133
lfingers 7.12502
lthumb -1.32424 23.3943
rfemur -56.2078 -1.41061 20.3191
rtibia 55.3528
rfoot -22.2554 -7.72316
rtoes -3.27301
lfemur -56.3586 6.09166 -20.7826
ltibia 54.6283
lfoot -19.8975 11.6719
ltoes -15.4053
172
root 0.642117 16.0093 -16.1778 21.7117 1.1466 -1.95849
lowerback 19.2993 -0.0902062 0.381763
upperback 4.09426 0.153158 2.60207
thorax -6.38125 0.0832528 2.53875
lowerneck -17.7604 -0.509952 -2.56095
upperneck -4.24938 -0.17754 -0.420028
head 1.65299 -0.0762128 0.296411
rclavicle -5.96354e-016 -1.31198e-014
rhumerus -30.6405 -15.6787 -71.506
rradius 28.6036
rwrist 27.8172
rhand -18.3237 -24.2409
rfingers 7.12502
rthumb 7.9579 -54.0711
lclavicle -5.96354e-016 -1.31198e-014
lhumerus -31.3731 -4.99184 82.1609
lradius 26.1063
lwrist 14.4358
lhand -27.8906 -6.50024
lfingers 7.12502
lthumb -1.28029 23.4757
rfemur -57.8274 -1.39209 20.3192
rtibia 56.2636
rfoot -22.4966 -8.15358
rtoes -3.07098
lfemur -57.9809 5.82422 -20.7926
ltibia 55.5172
lfoot -20.0657 12.2335
ltoes -15.5566
173
root 0.642237 16.0425 -16.2471 22.4948 1.24905 -1.96093
lowerback 19.9579 -0.0693286 0.386001
upperback 4.04071 0.19846 2.64038
thorax -6.79171 0.107912 2.57535
lowerneck -17.8431 -0.519705 -2.54964
upperneck -4.73086 -0.195247 -0.47009
head 1.50331 -0.0817652 0.276261
rclavicle -7.95139e-016 1.35174e-014
rhumerus -31.3621 -15.7406 -70.9876
rradius 28.5063
rwrist 27.8437
rhand -18.224 -24.2869
rfingers 7.12502
rthumb 8.05415 -54.1134
lclavicle -7.95139e-016 1.35174e-014
lhumerus -32.1449 -5.08166 82.039
lradius 25.9678
lwrist 14.4389
lhand -27.8697 -6.46484
lfingers 7.12502
lthumb -1.26011 23.5112
rfemur -59.0399 -1.35112 20.3323
rtibia 56.7408
rfoot -22.7561 -8.60343
rtoes -2.90706
lfemur -59.2039 5.55263 -20.7913
ltibia 55.9873
lfoot -20.226 12.8248
ltoes -15.6974
174
root 0.640194 15.9654 -16.3009 23.303 1.35036 -1.9713
lowerback 20.597 -0.0409236 0.392943
upperback 3.97924 0.254843 2.68594
thorax -7.2008 0.137952 2.61507
lowerneck -17.9474 -0.533729 -2.53092
upperneck -5.1838 -0.219213 -0.540538
head 1.36735 -0.0914514 0.248065
rclavicle -3.97569e-015 -5.76476e-015
rhumerus -32.107 -15.8261 -70.4368
rradius 28.3758
rwrist 27.916
rhand -18.1003 -24.3036
rfingers 7.12502
rthumb 8.1735 -54.1255
lclavicle -3.97569e-015 -5.76476e-015
lhumerus -32.9509 -5.17392 81.9451
lradius 25.8112
lwrist 14.5123
lhand -27.8993 -6.52488
lfingers 7.12502
lthumb -1.28866 23.451
rfemur -60.6895 -1.31391 20.3469
rtibia 57.6365
rfoot -23.0423 -9.01838
rtoes -2.762
lfemur -60.8674 5.30086 -20.7725
ltibia 56.8698
lfoot -20.3713 13.3992
ltoes -15.868
175
root 0.637765 15.8866 -16.353 24.1288 1.44895 -1.98585
lowerback 21.2269 -0.00479501 0.396598
upperback 3.91022 0.321449 2.73747
thorax -7.61377 0.173074 2.66012
lowerneck -18.0638 -0.553624 -2.50852
upperneck -5.61158 -0.251452 -0.621645
head 1.24222 -0.105878 0.215484
rclavicle 2.98177e-015 -1.09332e-014
rhumerus -32.88 -15.9365 -69.8517
rradius 28.2153
rwrist 28.0607
rhand -17.9534 -24.2886
rfingers 7.12502
rthumb 8.31531 -54.105
lclavicle 2.98177e-015 -1.09332e-014
lhumerus -33.7882 -5.25593 81.875
lradius 25.6296
lwrist 14.627
lhand -27.9662 -6.65527
lfingers 7.12502
lthumb -1.35324 23.3202
rfemur -62.3547 -1.27186 20.3678
rtibia 58.5303
rfoot -23.3411 -9.38692
rtoes -2.65971
lfemur -62.5513 5.05781 -20.7455
ltibia 57.7491
lfoot -20.4947 13.9452
ltoes -16.039
